<svg width="104" height="120" viewBox="0 0 104 120" fill="none" xmlns="http://www.w3.org/2000/svg">
<path d="M51.9767 120C50.4172 120 48.8344 119.571 47.4611 118.762L33.0994 110.07C30.9579 108.832 32.0054 108.404 32.7037 108.165C35.5667 107.142 36.1486 106.927 39.1979 105.141C39.5237 104.951 39.9427 105.022 40.2686 105.237L51.3017 111.928C51.6974 112.166 52.256 112.166 52.6285 111.928L95.6204 86.5443C96.0161 86.3062 96.2722 85.8299 96.2722 85.3537V34.5868C96.2722 34.0867 96.0161 33.6343 95.5971 33.3724L52.6285 8.0127C52.2328 7.77458 51.6974 7.77458 51.3017 8.0127L8.35631 33.3962C7.93733 33.6343 7.68129 34.1105 7.68129 34.6106V85.3537C7.68129 85.8299 7.93733 86.3062 8.35631 86.5205L20.1343 93.4736C26.5354 96.7358 30.4458 92.9021 30.4458 89.0207V38.9205C30.4458 38.2062 31.0045 37.6585 31.7028 37.6585H37.1495C37.8245 37.6585 38.4064 38.2062 38.4064 38.9205V89.0445C38.4064 97.7597 33.7511 102.76 25.6741 102.76C23.1835 102.76 21.2283 102.76 15.7816 99.998L4.51567 93.3545C1.72247 91.7115 0 88.6397 0 85.3299V34.5868C0 31.3007 1.72247 28.2052 4.51567 26.5622L47.4611 1.17869C50.1844 -0.392896 53.7923 -0.392896 56.4924 1.17869L99.4843 26.586C102.278 28.229 104 31.3007 104 34.6106V85.3537C104 88.6397 102.278 91.7115 99.4843 93.3783L56.4924 118.762C55.1191 119.571 53.5595 120 51.9767 120ZM86.6822 69.9712C86.6822 60.4703 80.3975 57.9462 67.1996 56.1603C53.8389 54.3506 52.4888 53.422 52.4888 50.2312C52.4888 47.5881 53.6294 44.0639 63.5219 44.0639C72.3438 44.0639 75.6025 46.0165 76.9525 52.1123C77.0689 52.6838 77.581 53.1124 78.1629 53.1124H83.7493C84.0985 53.1124 84.4243 52.9695 84.6571 52.7076C84.8899 52.4457 85.0063 52.0885 84.983 51.7313C84.1217 41.2303 77.3017 36.3488 63.5219 36.3488C51.2551 36.3488 43.9463 41.6351 43.9463 50.5169C43.9463 60.1369 51.2319 62.8038 62.9866 63.9944C77.0689 65.3993 78.1629 67.5186 78.1629 70.3522C78.1629 75.2575 74.299 77.3529 65.2444 77.3529C53.8621 77.3529 51.3715 74.424 50.5336 68.6378C50.4405 68.0187 49.9284 67.5662 49.2999 67.5662H43.7368C43.0385 67.5662 42.5031 68.1377 42.5031 68.8283C42.5031 76.2338 46.4369 85.068 65.2677 85.068C78.8612 85.0442 86.6822 79.5436 86.6822 69.9712Z" fill="#F8F5F5"/>
</svg>
