<svg width="108" height="102" viewBox="0 0 108 102" fill="none" xmlns="http://www.w3.org/2000/svg">
<path d="M63.7921 0.758625L67.8146 1.60331L71.0681 2.71575L73.6996 3.99075L75.7025 5.355L77.2172 6.79894L78.3307 8.23969L79.0429 9.639L79.4809 10.914L79.6715 12.0105L79.7618 12.8743L79.7083 13.4226V36.1176L79.4809 38.7919L78.9058 41.1347L77.9662 43.095L76.816 44.7047L75.4785 46.0148L74.0173 47.0762L72.449 47.8922L70.8808 48.4883L69.4196 48.9218L68.0821 49.2023L66.9318 49.3839L65.9923 49.47H39.3626L36.2998 49.6836L33.6682 50.2669L31.4379 51.2136L29.6089 52.3579L28.1276 53.7221L26.9239 55.1979L26.0378 56.7439L25.3724 58.3026L24.921 59.7943L24.61 61.1586L24.4328 62.3029L24.3492 63.1986V76.2004H14.4015L13.4653 76.0633L12.208 75.7669L10.8003 75.2696L9.23209 74.5046L7.63044 73.3954L6.02878 71.8654L4.46056 69.9051L3.03278 67.3965L1.77553 64.2951L0.852656 60.5593L0.227375 56.0936L0 50.8661L0.264156 45.6864L0.976375 41.2718L2.05641 37.5711L3.48419 34.5493L5.08919 32.1268L6.86472 30.2653L8.74725 28.8533L10.6097 27.8428L12.402 27.1639L14.007 26.7304L15.4348 26.5136L16.4947 26.4786H17.2069L17.4878 26.5136H53.8511V22.9946H27.8133L27.7765 11.3061L27.6929 9.72825L27.9203 8.28431L28.4052 6.97425L29.1542 5.77575L30.2676 4.68244L31.662 3.70069L33.3472 2.856L35.3167 2.07506L37.5804 1.44712L40.1752 0.933937L43.0107 0.516375L46.1805 0.251813L49.6146 0.0860625L53.3596 0L59.0172 0.21675L63.7921 0.758625ZM35.7179 9.17362L34.6881 10.5666L34.3236 12.3101L34.6881 14.0569L35.7179 15.4976L37.1792 16.4443L39.0082 16.8268L40.8372 16.4443L42.2984 15.4976L43.3283 14.0569L43.6928 12.3101L43.3283 10.5666L42.2984 9.17362L40.8372 8.24288L39.0082 7.86356L37.1792 8.24288L35.7179 9.17362ZM94.0764 25.9558L95.3103 26.2236L96.738 26.7208L98.3063 27.4858L99.9079 28.6301L101.513 30.1251L103.078 32.1173L104.506 34.6194L105.746 37.7273L106.686 41.4789L107.311 45.8936L107.538 51.1211L107.261 56.3518L106.542 60.7665L105.482 64.4162L104.054 67.4379L102.449 69.8604L100.657 71.7729L98.7944 73.1659L96.9119 74.1954L95.1364 74.8744L93.5314 75.2569L92.1036 75.4736L91.0436 75.5533L90.3314 75.5055H53.6705V78.9894H79.7083L79.7618 90.729L79.8454 92.2558L79.618 93.6998L79.1332 95.0098L78.3675 96.237L77.254 97.2984L75.8797 98.3312L74.1911 99.1759L72.2217 99.9058L69.9579 100.534L67.3632 101.082L64.511 101.464L61.3578 101.761L57.9071 101.927L54.1621 101.978L48.5044 101.812L43.7329 101.213L39.7238 100.368L36.4703 99.3066L33.8388 98.0284L31.8358 96.6163L30.3211 95.1724L29.2077 93.7316L28.4954 92.3323L28.0407 91.0573L27.8668 89.9959L27.7765 89.1448L27.8133 88.5997V65.9047L28.0407 63.1794L28.6325 60.8717L29.5554 58.9305L30.7224 57.3017L32.0599 55.9597L33.5278 54.9302L35.0927 54.0791L36.6442 53.4831L38.1254 53.0496L39.4663 52.8041L40.6132 52.6384L42.1279 52.5013H68.1657L71.2453 52.2877L73.8768 51.7044L76.1071 50.8088L77.9361 49.6134L79.404 48.2492L80.6044 46.7734L81.5106 45.2274L82.176 43.7006L82.6274 42.2216L82.9451 40.8606L83.1189 39.6653L83.2025 38.7696V25.7678H92.5216L93.1502 25.8028L94.0764 25.9558ZM65.2165 86.5183L64.1866 87.9304L63.8389 89.6771L64.1866 91.4207L65.2165 92.8136L66.6978 93.7922L68.5268 94.1237L70.3559 93.7922L71.8171 92.8136L72.8469 91.4207L73.2114 89.6771L72.8469 87.9304L71.8171 86.5183L70.3559 85.5397L68.5268 85.2082L66.6978 85.5397L65.2165 86.5183Z" fill="#F8F5F5"/>
</svg>
