<svg width="93" height="88" viewBox="0 0 93 88" fill="none" xmlns="http://www.w3.org/2000/svg">
<g clip-path="url(#clip0_202_2293)">
<path d="M93 44C93 38.766 88.3389 34.0764 80.6392 30.6005C83.4695 23.0097 83.2839 16.5812 79.3803 12.8874C75.5702 9.2809 68.9514 8.90332 60.6596 11.6947C56.9864 4.40994 52.0305 0 46.5 0C40.969 0 36.013 4.41027 32.3399 11.6962C24.3165 9.01707 17.522 9.19258 13.6196 12.8866C9.71587 16.5805 9.53039 23.0096 12.3609 30.6005C4.66098 34.0762 0 38.7658 0 44C0 49.234 4.66098 53.9236 12.3607 57.3995C9.53039 64.9903 9.71605 71.4188 13.6196 75.1126C15.7707 77.1488 18.8099 78.1689 22.542 78.1689C25.4196 78.1689 28.7302 77.5242 32.3419 76.3085C36.0151 83.5915 40.9701 88 46.5 88C52.0301 88 56.9852 83.5914 60.6582 76.3077C64.2699 77.5236 67.5803 78.1681 70.458 78.1681C74.19 78.1681 77.2292 77.148 79.3803 75.1117C83.2837 71.418 83.4695 64.9898 80.6396 57.3993C88.3393 53.9236 93 49.2339 93 44ZM70.4395 13.0967C73.2381 13.0967 75.4682 13.7945 76.9449 15.1919C79.8594 17.9496 79.8482 23.0936 77.5158 29.319C73.9525 27.9918 69.8857 26.897 65.4346 26.083C64.5769 21.8846 63.4246 18.0481 62.0277 14.6841C65.1695 13.6465 68.025 13.0967 70.4395 13.0967ZM58.828 72.1166C55.7919 70.861 52.6636 69.2413 49.5089 67.2938C51.3215 66.0274 53.1266 64.6855 54.9118 63.2436C57.2683 63.0694 59.5572 62.8235 61.7676 62.51C60.9851 66.0314 59.9915 69.2664 58.828 72.1166ZM31.2323 62.51C33.4431 62.8235 35.7325 63.0694 38.0891 63.2436C39.8746 64.6857 41.6795 66.0274 43.4921 67.2938C40.3372 69.2413 37.2086 70.8617 34.1723 72.1173C33.0088 69.2668 32.0149 66.0316 31.2323 62.51ZM61.7676 25.49C59.5546 25.1763 57.263 24.9302 54.9037 24.756C53.109 23.3052 51.3115 21.9558 49.5163 20.701C52.6684 18.7554 55.7939 17.1372 58.8277 15.8827C59.9912 18.7332 60.9851 21.9684 61.7676 25.49ZM63.7222 44C63.7222 46.2518 63.6361 48.4652 63.479 50.6295C61.9617 52.2788 60.3749 53.9183 58.6783 55.5236C56.9895 57.1215 55.2604 58.6241 53.5159 60.0655C51.2254 60.2145 48.8832 60.2963 46.5 60.2963C44.1173 60.2963 41.7752 60.2148 39.4852 60.0655C37.7404 58.6236 36.0108 57.121 34.3216 55.5228C32.625 53.9174 31.0382 52.2779 29.5209 50.6287C29.3639 48.4644 29.2778 46.2515 29.2778 44C29.2778 41.7482 29.3639 39.5348 29.5209 37.3705C31.0382 35.7212 32.625 34.0817 34.3216 32.4764C36.0104 30.8785 37.7397 29.3759 39.4841 27.9345C41.7745 27.7855 44.1169 27.7037 46.5 27.7037C48.8883 27.7037 51.2357 27.7857 53.5309 27.9356C55.2666 29.3659 56.9888 30.8771 58.6783 32.4756C60.3747 34.0809 61.9617 35.7203 63.4788 37.3697C63.6361 39.5345 63.7222 41.7479 63.7222 44ZM61.1137 30.1713C60.4891 29.5804 59.8561 29.0302 59.2267 28.462C60.3189 28.5949 61.3899 28.7473 62.4452 28.9121C62.6194 29.9105 62.7805 30.924 62.9208 31.9574C62.3203 31.3616 61.7383 30.7625 61.1137 30.1713ZM49.0788 24.4741C48.2255 24.4554 47.3664 24.4444 46.5 24.4444C45.6237 24.4444 44.7552 24.4559 43.8922 24.4751C44.7584 23.8403 45.6277 23.2441 46.4966 22.6541C47.3559 23.2366 48.2172 23.8452 49.0788 24.4741ZM38.0881 24.7564C35.7318 24.9306 33.4426 25.1765 31.2323 25.49C32.0168 21.9602 33.0133 18.7176 34.1804 15.8627C37.1467 17.1031 40.2819 18.7347 43.4828 20.7121C41.6731 21.9767 39.8708 23.3166 38.0881 24.7564ZM33.7691 28.4626C33.1402 29.0299 32.5062 29.5854 31.8862 30.1719C31.2616 30.7632 30.6797 31.3624 30.0789 31.9583C30.2193 30.9243 30.3805 29.911 30.5548 28.9121C31.6088 28.7473 32.6783 28.5953 33.7691 28.4626ZM26.1624 36.0484C24.6332 37.7421 23.2107 39.4385 21.8872 41.1327C19.8004 38.1068 18.079 35.1449 16.7694 32.3408C19.7854 31.2372 23.2102 30.2951 26.9383 29.5533C26.6067 31.6472 26.3466 33.816 26.1624 36.0484ZM25.8646 41.5611C25.8448 42.3683 25.8333 43.1808 25.8333 44C25.8333 44.819 25.8448 45.6313 25.8645 46.4379C25.2011 45.6243 24.5735 44.8112 23.9588 43.9997C24.5735 43.188 25.2013 42.3748 25.8646 41.5611ZM26.1623 51.9506C26.3466 54.1834 26.6067 56.3523 26.9383 58.4467C23.21 57.7049 19.7852 56.7624 16.7691 55.6589C18.0786 52.8548 19.8002 49.8927 21.8872 46.8665C23.2107 48.5607 24.6332 50.2571 26.1623 51.9506ZM30.0787 56.0408C30.6795 56.6368 31.2616 57.236 31.8862 57.8272C32.5066 58.4141 33.141 58.9698 33.7701 59.5375C32.679 59.4049 31.6089 59.2527 30.5548 59.0879C30.3803 58.0888 30.2193 57.0748 30.0787 56.0408ZM43.8934 63.5249C44.756 63.5441 45.6242 63.5556 46.5 63.5556C47.3762 63.5556 48.2447 63.5441 49.1077 63.5249C48.2404 64.1603 47.3704 64.7571 46.5005 65.348C45.6306 64.7572 44.7607 64.1603 43.8934 63.5249ZM59.2308 59.5374C59.8597 58.9701 60.4937 58.4146 61.1137 57.8281C61.7383 57.2368 62.3203 56.6376 62.921 56.0417C62.7806 57.0757 62.6194 58.089 62.4452 59.0879C61.3912 59.2527 60.3217 59.4047 59.2308 59.5374ZM66.8375 51.9516C68.3671 50.2575 69.7896 48.561 71.1133 46.8665C73.2001 49.8927 74.9216 52.8548 76.2312 55.6589C73.2151 56.7624 69.7901 57.7049 66.0616 58.4467C66.3932 56.3528 66.6534 54.184 66.8375 51.9516ZM67.1353 46.4389C67.1551 45.6317 67.1667 44.8192 67.1667 44C67.1667 43.1805 67.1551 42.3676 67.1353 41.5603C67.7989 42.3743 68.4268 43.1876 69.0416 43.9997C68.4268 44.8116 67.7989 45.6249 67.1353 46.4389ZM66.8373 36.0476C66.6531 33.8151 66.393 31.6471 66.0616 29.5533C69.7899 30.2951 73.2147 31.2376 76.2309 32.3411C74.9213 35.1451 73.1999 38.1069 71.1133 41.1327C69.7896 39.4382 68.3668 37.7412 66.8373 36.0476ZM46.5 3.25926C50.6273 3.25926 54.4697 6.90996 57.4743 12.8871C53.9019 14.3631 50.2144 16.3167 46.5149 18.6814C42.7464 16.2696 39.0489 14.3341 35.5263 12.8856C38.5307 6.90963 42.3728 3.25926 46.5 3.25926ZM16.055 15.1911C17.5921 13.7365 19.8307 13.0497 22.5671 13.0497C25.0171 13.0497 27.8765 13.6175 30.9826 14.6587C29.581 18.0286 28.4251 21.8744 27.5653 26.083C23.1142 26.8969 19.0476 27.9915 15.4845 29.319C13.1517 23.0933 13.1403 17.9491 16.055 15.1911ZM3.44444 44C3.44444 40.0951 7.30222 36.4594 13.6181 33.6163C15.1467 36.9452 17.1893 40.4388 19.7334 43.9997C17.1891 47.5609 15.1464 51.0547 13.6179 54.3835C7.30222 51.5406 3.44444 47.9049 3.44444 44ZM16.055 72.8081C13.1406 70.0504 13.1517 64.9064 15.4841 58.681C19.0474 60.0082 23.1141 61.103 27.5653 61.917C28.423 66.1157 29.5755 69.9527 30.9726 73.317C24.1875 75.557 18.8046 75.4108 16.055 72.8081ZM46.5 84.7407C42.3727 84.7407 38.5302 81.09 35.5256 75.1129C39.1031 73.635 42.7958 71.6783 46.5006 69.3088C50.205 71.6778 53.8974 73.6345 57.4746 75.1126C54.4701 81.0896 50.6274 84.7407 46.5 84.7407ZM76.9449 72.8073C74.1938 75.4113 68.8112 75.5579 62.0273 73.3166C63.4244 69.9525 64.5769 66.1157 65.4346 61.917C69.8858 61.103 73.9527 60.0082 77.516 58.6808C79.8482 64.9059 79.8592 70.0498 76.9449 72.8073ZM79.3824 54.3834C77.8539 51.0545 75.8113 47.5606 73.2673 43.9997C75.8111 40.4388 77.8535 36.9452 79.382 33.6165C85.6978 36.4594 89.5556 40.0951 89.5556 44C89.5556 47.9049 85.6979 51.5405 79.3824 54.3834Z" fill="#F8F5F5"/>
<path d="M46.4983 37.4814C42.6988 37.4814 39.6094 40.4057 39.6094 44C39.6094 47.5943 42.6988 50.5185 46.4983 50.5185C50.2976 50.5185 53.3872 47.5943 53.3872 44C53.3872 40.4057 50.2976 37.4814 46.4983 37.4814ZM46.4983 47.2592C44.5995 47.2592 43.0538 45.7974 43.0538 44C43.0538 42.2025 44.5995 40.7407 46.4983 40.7407C48.397 40.7407 49.9427 42.2025 49.9427 44C49.9427 45.7974 48.397 47.2592 46.4983 47.2592Z" fill="#F8F5F5"/>
</g>
<defs>
<clipPath id="clip0_202_2293">
<rect width="93" height="88" fill="white"/>
</clipPath>
</defs>
</svg>
