<svg width="79" height="78" viewBox="0 0 79 78" fill="none" xmlns="http://www.w3.org/2000/svg">
<path d="M76.1952 8.20455L59.9434 0.484989C58.0523 -0.416886 55.8033 -0.0366357 54.3245 1.42343L23.1961 29.4669L9.63029 19.3098C8.37123 18.3567 6.5962 18.4347 5.42601 19.4877L1.08101 23.3975C-0.358272 24.6796 -0.358272 26.9148 1.06867 28.1969L12.8347 38.7976L1.06867 49.3983C-0.358272 50.6804 -0.358272 52.9156 1.08101 54.1977L5.42601 58.1075C6.60854 59.1605 8.37123 59.2385 9.63029 58.2854L23.1961 48.1162L54.3393 76.1718C55.8058 77.6319 58.0548 78.0121 59.9459 77.1102L76.2125 69.3785C77.9233 68.5668 79.0022 66.8654 79.0022 64.9861V12.5921C79.0022 10.7249 77.9085 9.01136 76.2001 8.19968L76.1952 8.20455ZM59.2596 56.5109L35.6262 38.8001L59.2596 21.0892V56.5109Z" fill="#F8F5F5"/>
</svg>
