<svg width="85" height="85" viewBox="0 0 85 85" fill="none" xmlns="http://www.w3.org/2000/svg">
<path fill-rule="evenodd" clip-rule="evenodd" d="M42.0508 0C18.8282 0 0 19.3326 0 43.1843C0 62.2617 12.0487 78.4462 28.7612 84.1584C30.8647 84.5538 31.6313 83.2205 31.6313 82.0741C31.6313 81.0516 31.5962 78.3348 31.5752 74.732C19.8765 77.3411 17.409 68.9425 17.409 68.9425C15.4963 63.9562 12.7383 62.6283 12.7383 62.6283C8.91975 59.9473 13.027 60.0013 13.027 60.0013C17.248 60.3085 19.4688 64.4521 19.4688 64.4521C23.2208 71.0502 29.3125 69.1438 31.7082 68.0405C32.0915 65.2499 33.1748 63.347 34.3787 62.2671C25.0408 61.1782 15.2215 57.4713 15.2215 40.9256C15.2215 36.2124 16.8613 32.3563 19.551 29.3376C19.1188 28.2451 17.675 23.8553 19.9622 17.9095C19.9622 17.9095 23.4938 16.7487 31.528 22.337C34.8828 21.3792 38.4808 20.8995 42.056 20.8833C45.6278 20.8995 49.2257 21.3792 52.5858 22.337C60.6147 16.7487 64.1393 17.9095 64.1393 17.9095C66.4335 23.8553 64.9897 28.2451 64.5575 29.3376C67.2525 32.3563 68.8818 36.2124 68.8818 40.9256C68.8818 57.5144 59.0468 61.1638 49.6773 62.233C51.1893 63.5663 52.5333 66.2005 52.5333 70.2309C52.5333 76.0024 52.4825 80.6599 52.4825 82.0741C52.4825 83.2313 53.2385 84.5753 55.3735 84.1531C72.072 78.43 84.1103 62.2563 84.1103 43.1843C84.1103 19.3326 65.2803 0 42.0508 0Z" fill="#F8F5F5"/>
</svg>
