<svg width="97" height="91" viewBox="0 0 97 91" fill="none" xmlns="http://www.w3.org/2000/svg">
<path d="M20.207 20.8543C20.207 17.3347 21.6974 13.9592 24.3503 11.4704C27.0031 8.98167 30.6012 7.5835 34.3529 7.5835H48.4987V34.1252H34.3529C30.6012 34.1252 27.0031 32.727 24.3503 30.2382C21.6974 27.7495 20.207 24.374 20.207 20.8543Z" stroke="#F8F5F5" stroke-width="6" stroke-linecap="round" stroke-linejoin="round"/>
<path d="M48.5 7.5835H62.6458C64.5035 7.5835 66.343 7.92676 68.0592 8.59368C69.7755 9.2606 71.3349 10.2381 72.6485 11.4704C73.962 12.7027 75.004 14.1657 75.7149 15.7758C76.4258 17.3859 76.7917 19.1116 76.7917 20.8543C76.7917 22.5971 76.4258 24.3228 75.7149 25.9329C75.004 27.543 73.962 29.0059 72.6485 30.2382C71.3349 31.4705 69.7755 32.4481 68.0592 33.115C66.343 33.7819 64.5035 34.1252 62.6458 34.1252H48.5V7.5835Z" stroke="#F8F5F5" stroke-width="6" stroke-linecap="round" stroke-linejoin="round"/>
<path d="M48.5 47.3958C48.5 45.6531 48.8659 43.9274 49.5768 42.3173C50.2877 40.7072 51.3297 39.2442 52.6432 38.0119C53.9568 36.7796 55.5162 35.8021 57.2325 35.1352C58.9487 34.4683 60.7882 34.125 62.6458 34.125C64.5035 34.125 66.343 34.4683 68.0592 35.1352C69.7755 35.8021 71.3349 36.7796 72.6485 38.0119C73.962 39.2442 75.004 40.7072 75.7149 42.3173C76.4258 43.9274 76.7917 45.6531 76.7917 47.3958C76.7917 49.1386 76.4258 50.8643 75.7149 52.4744C75.004 54.0845 73.962 55.5474 72.6485 56.7797C71.3349 58.012 69.7755 58.9896 68.0592 59.6565C66.343 60.3234 64.5035 60.6667 62.6458 60.6667C60.7882 60.6667 58.9487 60.3234 57.2325 59.6565C55.5162 58.9896 53.9568 58.012 52.6432 56.7797C51.3297 55.5474 50.2877 54.0845 49.5768 52.4744C48.8659 50.8643 48.5 49.1386 48.5 47.3958Z" stroke="#F8F5F5" stroke-width="6" stroke-linecap="round" stroke-linejoin="round"/>
<path d="M20.207 73.9373C20.207 70.4177 21.6974 67.0422 24.3503 64.5534C27.0031 62.0647 30.6012 60.6665 34.3529 60.6665H48.4987V73.9373C48.4987 77.457 47.0083 80.8325 44.3555 83.3212C41.7026 85.81 38.1046 87.2082 34.3529 87.2082C30.6012 87.2082 27.0031 85.81 24.3503 83.3212C21.6974 80.8325 20.207 77.457 20.207 73.9373Z" stroke="#F8F5F5" stroke-width="6" stroke-linecap="round" stroke-linejoin="round"/>
<path d="M20.207 47.3958C20.207 43.8762 21.6974 40.5007 24.3503 38.0119C27.0031 35.5232 30.6012 34.125 34.3529 34.125H48.4987V60.6667H34.3529C30.6012 60.6667 27.0031 59.2685 24.3503 56.7797C21.6974 54.291 20.207 50.9155 20.207 47.3958Z" stroke="#F8F5F5" stroke-width="6" stroke-linecap="round" stroke-linejoin="round"/>
</svg>
