<svg width="48" height="45" viewBox="0 0 48 45" fill="none" xmlns="http://www.w3.org/2000/svg">
<g clip-path="url(#clip0_361_309)">
<path fill-rule="evenodd" clip-rule="evenodd" d="M23.7531 4.21875C12.5338 4.21875 3.4375 13.0407 3.4375 23.9249C3.4375 32.6304 9.2585 40.0158 17.3327 42.6225C18.3489 42.8029 18.7192 42.1944 18.7192 41.6713C18.7192 41.2048 18.7023 39.965 18.6922 38.3209C13.0403 39.5115 11.8482 35.679 11.8482 35.679C10.9241 33.4036 9.59161 32.7977 9.59161 32.7977C7.74682 31.5743 9.73112 31.5989 9.73112 31.5989C11.7704 31.7391 12.8433 33.6299 12.8433 33.6299C14.6559 36.6408 17.599 35.7709 18.7564 35.2674C18.9416 33.994 19.4649 33.1257 20.0466 32.6329C15.5352 32.136 10.7913 30.4444 10.7913 22.8942C10.7913 20.7434 11.5835 18.9838 12.883 17.6063C12.6742 17.1077 11.9767 15.1046 13.0817 12.3913C13.0817 12.3913 14.7878 11.8616 18.6693 14.4117C20.2901 13.9747 22.0284 13.7557 23.7556 13.7483C25.4812 13.7557 27.2195 13.9747 28.8428 14.4117C32.7217 11.8616 34.4245 12.3913 34.4245 12.3913C35.5329 15.1046 34.8354 17.1077 34.6266 17.6063C35.9286 18.9838 36.7157 20.7434 36.7157 22.8942C36.7157 30.4641 31.9642 32.1294 27.4376 32.6173C28.1681 33.2257 28.8174 34.4278 28.8174 36.2669C28.8174 38.9007 28.7929 41.026 28.7929 41.6713C28.7929 42.1994 29.1581 42.8127 30.1896 42.62C38.257 40.0084 44.0729 32.628 44.0729 23.9249C44.0729 13.0407 34.9757 4.21875 23.7531 4.21875Z" fill="black"/>
</g>
<defs>
<clipPath id="clip0_361_309">
<rect width="47" height="45" fill="white" transform="translate(0.5)"/>
</clipPath>
</defs>
</svg>
