<svg width="24" height="24" viewBox="0 0 24 24" fill="none" xmlns="http://www.w3.org/2000/svg">
<g clip-path="url(#clip0_202_2262)">
<path d="M23.0676 16.5621L22.9233 16.2651C22.5832 15.5715 21.7026 14.9239 20.9652 14.8262L18.2356 14.459C17.4955 14.3603 16.5201 14.7771 16.0778 15.3933L15.2711 16.5173C11.6823 16.0451 8.57217 13.6214 7.12433 10.1685L7.93109 9.04435C8.37334 8.42812 8.48153 7.33681 8.18142 6.62496L7.07295 3.9989C6.77304 3.2884 5.92666 2.59148 5.19374 2.45004L4.87931 2.38849C4.14506 2.24725 3.18296 2.63584 2.74073 3.25202L1.53419 4.93479C1.31841 5.23378 1.26452 6.00777 1.26492 6.01051C1.89117 10.7063 4.3097 14.9688 7.97602 17.8257C11.6333 20.6757 16.2242 21.8878 20.7126 21.2005C20.7361 21.1971 21.4546 20.9241 21.6704 20.6251L22.8772 18.9437C23.3194 18.3275 23.4051 17.2561 23.0676 16.5621Z" fill="black"/>
</g>
<defs>
<clipPath id="clip0_202_2262">
<rect width="20.1658" height="20.9775" fill="white" transform="translate(0.8125 2.87744) rotate(-8.20321)"/>
</clipPath>
</defs>
</svg>
