<svg width="47" height="37" viewBox="0 0 47 37" fill="none" xmlns="http://www.w3.org/2000/svg">
<g clip-path="url(#clip0_361_293)">
<path d="M34.2986 35.9979C33.7464 35.9979 33.1406 35.8167 32.4854 35.4557L17.6462 24.5078C17.48 24.3856 17.3784 24.1948 17.3674 23.9889C17.3578 23.783 17.4402 23.584 17.594 23.4454L35.1708 7.63979C35.4524 7.38586 35.8865 7.40782 36.1406 7.69057C36.3947 7.97196 36.3714 8.4057 36.0898 8.65964L19.1394 23.9038L33.2244 34.3027C33.5967 34.5017 34.2258 34.7543 34.6736 34.547C35.1296 34.3384 35.3549 33.6727 35.4648 33.1511L41.4744 4.85202C41.7079 3.91728 41.5953 3.16509 41.1791 2.81919C40.8617 2.55565 40.3892 2.53643 39.8782 2.76703L4.55427 16.3806C3.47049 16.8157 3.12983 17.2631 3.13533 17.4114C3.13945 17.5088 3.37296 17.7779 4.06939 17.9906L12.8262 20.7221L22.4402 14.6607C22.7616 14.4603 23.1847 14.555 23.3866 14.8748C23.5885 15.1946 23.4937 15.6188 23.1723 15.8205L13.2905 22.0508C13.1202 22.1579 12.91 22.1853 12.7191 22.1263L3.66417 19.3015C2.05704 18.8101 1.78231 17.9426 1.76308 17.469C1.73561 16.8198 2.11061 15.8809 4.0529 15.104L39.348 1.50423C40.3054 1.06774 41.3329 1.16108 42.0595 1.7664C42.9016 2.4678 43.1763 3.7059 42.8137 5.16223L36.8096 33.4352C36.5568 34.6404 36.0321 35.4351 35.2478 35.7947C34.9524 35.9306 34.6365 35.9979 34.2986 35.9979Z" fill="black"/>
<path d="M34.2986 35.9979C33.7464 35.9979 33.1406 35.8167 32.4854 35.4557L23.2547 28.6489C22.9498 28.4238 22.8838 27.9928 23.1105 27.6895C23.3358 27.3847 23.7671 27.3189 24.0706 27.5453L33.2244 34.3027C33.5967 34.5017 34.2258 34.7543 34.6736 34.547C35.1296 34.3384 35.3549 33.6727 35.4648 33.1511L41.4744 4.85202C41.7079 3.91728 41.5953 3.16509 41.1791 2.81919C40.8617 2.55565 40.3892 2.53643 39.8782 2.76703L4.55427 16.3806C3.47049 16.8157 3.12983 17.2631 3.13533 17.4114C3.13945 17.5088 3.37296 17.7779 4.06939 17.9906L13.127 20.8154C13.3441 20.8827 13.513 21.0543 13.5803 21.2712L16.6943 31.5122C16.7781 31.7414 16.8427 31.9693 16.899 32.1669C16.9429 32.3234 16.9979 32.5183 17.035 32.576C17.0295 32.5691 17.1394 32.602 17.4319 32.6034C18.046 32.6034 18.2795 32.3742 18.7465 31.9198L21.0267 29.7045C21.2987 29.4382 21.7327 29.4464 21.9979 29.7182C22.2616 29.99 22.2561 30.4251 21.9841 30.6886L19.7424 32.8642C19.1902 33.4036 18.605 33.9746 17.4319 33.9746C16.0858 33.9746 15.8138 33.3789 15.5762 32.5389C15.5281 32.3687 15.4732 32.1724 15.3907 31.9459L12.3715 22.0179L3.66417 19.3015C2.05704 18.8101 1.78231 17.9426 1.76308 17.469C1.73561 16.8198 2.11061 15.8809 4.0529 15.104L39.348 1.50423C40.3054 1.06774 41.3329 1.16108 42.0595 1.7664C42.9016 2.4678 43.1763 3.7059 42.8137 5.16223L36.8096 33.4352C36.5568 34.6404 36.0321 35.4351 35.2478 35.7947C34.9524 35.9306 34.6365 35.9979 34.2986 35.9979Z" fill="black"/>
<path d="M25.7916 13.812C25.7916 14.1895 25.4825 14.4983 25.1048 14.4983C24.727 14.4983 24.418 14.1895 24.418 13.812C24.418 13.4346 24.727 13.1257 25.1048 13.1257C25.4825 13.1257 25.7916 13.4346 25.7916 13.812Z" fill="black"/>
</g>
<defs>
<clipPath id="clip0_361_293">
<rect width="46" height="37" fill="white" transform="translate(0.5)"/>
</clipPath>
</defs>
</svg>
