<svg width="49" height="47" viewBox="0 0 49 47" fill="none" xmlns="http://www.w3.org/2000/svg">
<g clip-path="url(#clip0_361_313)">
<path d="M45 22.994C45 33.5647 35.8797 42.1338 24.6272 42.1338C21.055 42.1338 17.699 41.2694 14.7792 39.7523L3.5 43.1458L7.17736 32.8767C5.32231 29.9927 4.25392 26.6101 4.25392 22.994C4.25392 12.4232 13.3752 3.85413 24.6272 3.85413C35.8806 3.85413 45 12.4232 45 22.994ZM24.6272 6.90229C15.1818 6.90229 7.49876 14.121 7.49876 22.994C7.49876 26.5149 8.71102 29.7757 10.7616 32.4283L8.62156 38.4046L15.2039 36.4239C17.9083 38.1051 21.1481 39.0857 24.6277 39.0857C34.0717 39.0857 41.7561 31.8678 41.7561 22.9948C41.7561 14.1219 34.0721 6.90229 24.6272 6.90229ZM34.915 27.4021C34.7892 27.2069 34.4567 27.089 33.9578 26.8546C33.4579 26.6202 31.0021 25.4846 30.5456 25.3288C30.0877 25.1725 29.7538 25.0939 29.4214 25.5632C29.0889 26.033 28.1316 27.089 27.8398 27.4021C27.5483 27.716 27.2574 27.7552 26.7575 27.5204C26.2586 27.2859 24.6498 26.79 22.7422 25.1921C21.2579 23.9488 20.2554 22.4138 19.964 21.9436C19.673 21.4743 19.9335 21.2206 20.183 20.987C20.408 20.7766 20.6828 20.4391 20.9323 20.1654C21.1827 19.8912 21.2657 19.6961 21.4312 19.3826C21.5986 19.0696 21.5152 18.7959 21.3897 18.5606C21.2652 18.3261 20.2655 16.0175 19.8496 15.078C19.4337 14.1394 19.0182 14.2957 18.7264 14.2957C18.4354 14.2957 18.102 14.2564 17.7691 14.2564C17.4362 14.2564 16.8948 14.3738 16.4369 14.8431C15.9795 15.3129 14.6898 16.448 14.6898 18.7561C14.6898 21.0648 16.4784 23.2952 16.7288 23.6078C16.9783 23.9204 20.1825 28.8118 25.2594 30.6903C30.3367 32.568 30.3367 31.9416 31.2524 31.863C32.1673 31.7848 34.2063 30.7283 34.6241 29.6334C35.0391 28.5367 35.0391 27.5976 34.915 27.4021Z" fill="black"/>
</g>
<defs>
<clipPath id="clip0_361_313">
<rect width="48" height="46" fill="white" transform="translate(0.5 0.5)"/>
</clipPath>
</defs>
</svg>
